<?xml version="1.0" encoding="utf-8"?>
<!-- Generator: Adobe Illustrator 14.0.0, SVG Export Plug-In  -->
<!DOCTYPE svg PUBLIC "-//W3C//DTD SVG 1.1//EN" "http://www.w3.org/Graphics/SVG/1.1/DTD/svg11.dtd" [
	<!ENTITY ns_flows "http://ns.adobe.com/Flows/1.0/">
]>
<svg version="1.1"
	 xmlns="http://www.w3.org/2000/svg" xmlns:xlink="http://www.w3.org/1999/xlink" xmlns:a="http://ns.adobe.com/AdobeSVGViewerExtensions/3.0/"
	 x="0px" y="0px" width="406px" height="64px" viewBox="0 0.1 406 64" enable-background="new 0 0.1 406 64" xml:space="preserve">
<defs>
</defs>
<g>
	<g>
		<path fill="#E34A48" d="M63,26.4c0.3,1.8,0.5,3.7,0.5,5.7c0,17.1-13.9,31-31,31s-31-13.9-31-31s13.9-31,31-31
			c12.1,0,22.6,7,27.7,17.1L44.8,36.2c0,0,0-6.2,0-9.2c0-3-0.8-4.2-2-4.5c-1.2-0.3-2.8,0.8-4.2,2.3c-4,4.4-10.3,12.8-10.3,12.8
			s0-7.1,0-10c0-2.9-0.7-5.4-4.5-5.4s-5.3,0-6.4,0c0,3.2,3.4,2.4,3.4,5.3c0,1.5,0,12.5,0,14.8s0.6,6.2,4.9,6.2s13.1-13.1,13.1-13.1
			s0,6.8,0,8.3s0.7,4.8,4.7,4.8S63,26.4,63,26.4z"/>
	</g>
</g>
<path fill="#E34A48" d="M78,18.7c0.4-0.9,1.2-1.6,2.1-2.1c1-0.5,2.1-0.7,3.5-0.7c2.1,0,3.8,0.8,5.1,2.3c1.3,1.5,1.9,3.9,1.9,7.3
	v17.1l11-25.7h5.7l1.3,24.3l-0.1,1.4l11.4-25.7h6.6L111,48.4h-10.2l-1-14.6l-6.3,14.6H82l-1.4-23c-0.1-1.7-0.4-3.2-0.8-4.3
	C79.2,20,78.7,19.2,78,18.7z"/>
<path fill="#E34A48" d="M148.5,43.1c0,1.4,0.7,2.3,2.2,2.7c-0.4,1.2-1.2,2.1-2.6,2.7c-1.2,0.5-2.4,0.8-3.6,0.8s-2.2-0.2-2.9-0.5
	c-0.7-0.3-1.2-0.8-1.5-1.3c-0.6-0.8-0.9-2-0.9-3.6c0-0.9,0.3-2.7,0.8-5.2l0.7-3.6c0.5-2.8,0.8-4.7,0.8-5.7c0-1.8-0.5-2.7-1.5-2.7
	c-1.2,0-2.3,0.9-3.1,2.7c-0.3,0.7-0.6,1.6-0.8,2.6l-3.3,16.4l-9.6,1l6.8-34.6l9.6-1l-0.4,1.9c-0.9,4.9-1.7,8.2-2.5,9.9
	c1.8-1.8,4.3-2.7,7.6-2.7c3.5,0,5.6,1.2,6.2,3.5c0.2,0.7,0.3,1.4,0.3,2.1c0,0.6,0,1.2-0.1,1.7c0,0.5-0.2,1.2-0.3,2.1l-0.6,3.5
	l-1.1,5.4C148.6,41.9,148.5,42.6,148.5,43.1z"/>
<path fill="#E34A48" d="M156.6,47c-0.8-0.8-1.3-1.9-1.6-3.2c-0.3-1.3-0.5-3-0.5-5.2c0-2.1,0.4-4.2,1.1-6.1c0.7-2,1.8-3.6,3.1-5
	c2.8-2.9,6.4-4.4,10.9-4.4c1.6,0,3,0.3,4.2,0.8l8.2-0.8l-3.6,18.7c-0.1,0.4-0.1,0.9-0.1,1.6c0,0.7,0.2,1.3,0.6,1.7
	c0.4,0.4,1,0.7,1.6,0.8c-0.3,1.1-1.1,2-2.2,2.6c-1.2,0.6-2.4,1-3.7,1c-1.3,0-2.4-0.2-3.3-0.7c-0.9-0.5-1.4-1.2-1.7-2
	c-0.5,0.8-1.3,1.5-2.4,2c-1.1,0.5-2.4,0.8-3.8,0.8c-1.5,0-2.8-0.2-4-0.6C158.3,48.4,157.4,47.8,156.6,47z M166.7,27.5
	c-0.4,0.6-0.7,1.4-1,2.3c-0.3,1-0.7,2.8-1.3,5.4c-0.5,2.6-0.8,4.8-0.8,6.7c0,1.9,0.1,3.1,0.4,3.6c0.3,0.5,0.7,0.8,1.2,0.8
	c1,0,1.9-0.5,2.7-1.5c0.8-1,1.3-2.3,1.6-4.1l2.5-14.1c-0.7-0.6-1.4-0.9-2.2-0.9c-0.8,0-1.4,0.1-1.9,0.4
	C167.5,26.5,167.1,26.9,166.7,27.5z"/>
<path fill="#E34A48" d="M185.4,43.6c0-0.9,0.2-2.4,0.7-4.6l2.5-13h-2.8l0.2-1.4c3.8-1.2,7.6-3.1,11.3-6h2.3l-1.2,5.2h3.7l-0.4,2.2
	h-3.7l-2.4,13c-0.4,2-0.6,3.3-0.6,4c0,1.5,0.7,2.5,2,2.8c-0.3,1.1-1.1,2-2.2,2.6c-1.2,0.6-2.5,1-4.2,1c-1.6,0-2.9-0.5-3.8-1.5
	C185.9,46.8,185.4,45.4,185.4,43.6z"/>
<path fill="#E34A48" d="M221.2,40.3c0.8,0.5,1.2,1.4,1.2,2.6c0,1.2-0.3,2.2-0.9,3c-0.6,0.8-1.4,1.4-2.4,1.9c-2,1.1-4.2,1.6-6.4,1.6
	s-4-0.2-5.3-0.7c-1.3-0.5-2.4-1.2-3.2-2.1c-1.7-1.7-2.5-4.1-2.5-7.2c0-4.8,1.3-8.7,3.9-11.7c2.8-3.2,6.7-4.8,11.6-4.8
	c3,0,5.3,0.6,6.8,1.9c1.1,1,1.7,2.2,1.7,3.8c0,5.6-4.9,8.4-14.6,8.4c-0.1,0.8-0.2,1.6-0.2,2.3c0,1.5,0.3,2.5,1,3
	c0.7,0.6,1.6,0.8,2.8,0.8c1.2,0,2.5-0.3,3.8-0.8C219.8,42,220.7,41.2,221.2,40.3z M211.5,35.1c2.3,0,4.1-0.7,5.4-2.1
	c1.3-1.3,2-3.1,2-5.2c0-0.7-0.1-1.3-0.4-1.7c-0.3-0.4-0.7-0.6-1.2-0.6c-0.5,0-1,0.1-1.5,0.3c-0.5,0.2-0.9,0.7-1.4,1.4
	C213.1,28.7,212.1,31.4,211.5,35.1z"/>
<path fill="#E34A48" d="M244.8,24.8c1.1-1.2,2.5-1.8,4.3-1.8c1.1,0,2.1,0.3,3,0.9s1.3,1.5,1.3,2.6c0,1.1-0.2,2.3-0.5,3.5
	c-0.4,1.2-0.8,2.4-1.3,3.7c-1.1,2.4-2.4,4.7-3.9,6.7c-2.1,2.9-4.2,5.1-6.2,6.7c-2,1.5-4.2,2.3-6.4,2.3c-1.8,0-3.2-0.2-4.3-0.6
	c-0.2-6.7-0.4-11.3-0.6-13.7c-0.2-2.4-0.5-4.3-0.6-5.6c-0.3-2.6-1-4.1-1.9-4.8c0.7-0.6,1.5-1.1,2.2-1.4c0.7-0.3,1.8-0.4,3.3-0.4
	c1.5,0,2.8,0.6,3.8,1.8c1.1,1.2,1.7,2.8,1.9,4.8c0.2,2.1,0.3,4.3,0.3,6.8s-0.1,5.2-0.3,8.3c1-0.7,2-2.1,3.1-4.3
	c1.4-3,2.4-6.3,2.9-9.8c0.2-1.1,0.2-2.2,0.2-3.4C245,26.1,244.9,25.3,244.8,24.8z"/>
<path fill="#E34A48" d="M274.1,40.3c0.8,0.5,1.2,1.4,1.2,2.6c0,1.2-0.3,2.2-0.9,3c-0.6,0.8-1.4,1.4-2.4,1.9c-2,1.1-4.2,1.6-6.4,1.6
	s-4-0.2-5.3-0.7c-1.3-0.5-2.4-1.2-3.2-2.1c-1.7-1.7-2.5-4.1-2.5-7.2c0-4.8,1.3-8.7,3.9-11.7c2.8-3.2,6.7-4.8,11.6-4.8
	c3,0,5.3,0.6,6.8,1.9c1.1,1,1.7,2.2,1.7,3.8c0,5.6-4.9,8.4-14.6,8.4c-0.1,0.8-0.2,1.6-0.2,2.3c0,1.5,0.3,2.5,1,3
	c0.7,0.6,1.6,0.8,2.8,0.8s2.5-0.3,3.8-0.8C272.6,42,273.5,41.2,274.1,40.3z M264.3,35.1c2.3,0,4.1-0.7,5.4-2.1c1.3-1.3,2-3.1,2-5.2
	c0-0.7-0.1-1.3-0.4-1.7c-0.3-0.4-0.7-0.6-1.2-0.6s-1,0.1-1.5,0.3c-0.5,0.2-0.9,0.7-1.4,1.4C265.9,28.7,265,31.4,264.3,35.1z"/>
<path fill="#E34A48" d="M295.2,35c1.2-2,1.7-4.1,1.7-6.2c0-1.4-0.5-2.1-1.5-2.1c-0.8,0-1.6,0.7-2.4,2c-0.8,1.3-1.4,2.8-1.6,4.5
	L289,48.4l-9.9,1l4.9-25.4l7.9-1l-0.9,4.8c1.6-3.2,4.1-4.8,7.6-4.8c1.9,0,3.3,0.5,4.3,1.4s1.5,2.4,1.5,4.4c0,2-0.6,3.6-1.9,4.8
	s-3,1.9-5.3,1.9C296.3,35.5,295.6,35.3,295.2,35z"/>
<path fill="#E34A48" d="M306.1,18.7c0.4-0.9,1.2-1.6,2.1-2.1c1-0.5,2.1-0.7,3.5-0.7c2.1,0,3.8,0.8,5.1,2.3c1.3,1.5,1.9,3.9,1.9,7.3
	v17.1l11-25.7h5.7l1.3,24.3l-0.1,1.4l11.4-25.7h6.6l-15.4,31.6h-10.2l-1-14.6l-6.3,14.6H310l-1.4-23c-0.1-1.7-0.4-3.2-0.8-4.3
	C307.3,20,306.7,19.2,306.1,18.7z"/>
<path fill="#E34A48" d="M371,40.3c0.8,0.5,1.2,1.4,1.2,2.6c0,1.2-0.3,2.2-0.9,3c-0.6,0.8-1.4,1.4-2.4,1.9c-2,1.1-4.2,1.6-6.4,1.6
	s-4-0.2-5.3-0.7c-1.3-0.5-2.4-1.2-3.2-2.1c-1.7-1.7-2.5-4.1-2.5-7.2c0-4.8,1.3-8.7,3.9-11.7c2.8-3.2,6.7-4.8,11.6-4.8
	c3,0,5.3,0.6,6.8,1.9c1.1,1,1.7,2.2,1.7,3.8c0,5.6-4.9,8.4-14.6,8.4c-0.1,0.8-0.2,1.6-0.2,2.3c0,1.5,0.3,2.5,1,3
	c0.7,0.6,1.6,0.8,2.8,0.8s2.5-0.3,3.8-0.8C369.5,42,370.5,41.2,371,40.3z M361.2,35.1c2.3,0,4.1-0.7,5.4-2.1c1.3-1.3,2-3.1,2-5.2
	c0-0.7-0.1-1.3-0.4-1.7c-0.3-0.4-0.7-0.6-1.2-0.6s-1,0.1-1.5,0.3c-0.5,0.2-0.9,0.7-1.4,1.4C362.8,28.7,361.9,31.4,361.2,35.1z"/>
<path fill="#E34A48" d="M376.5,46.1l6-31.3l9.7-1l-1.5,7.3c-0.4,1.5-0.8,2.8-1.2,3.8c0.7-0.9,1.8-1.5,3.4-1.9
	c0.4-0.1,0.9-0.2,1.5-0.2c3,0,5.3,0.9,6.9,2.7c1.6,1.8,2.4,4.5,2.4,7.9c0,4.5-1.3,8.2-3.9,11.1c-2.8,3.1-6.7,4.7-11.8,4.7
	c-3.5,0-6.5-0.6-9.2-1.7C377.9,47.3,377.1,46.7,376.5,46.1z M386.1,45.7c0.7,0.6,1.4,0.9,2.3,0.9s1.5-0.2,2-0.5
	c0.5-0.3,0.9-0.8,1.2-1.4c1-1.7,1.8-5.2,2.6-10.5c0.2-1.5,0.3-3,0.3-4.5c0-1.5-0.2-2.5-0.5-3s-0.8-0.7-1.5-0.7c-2,0-3.2,1.9-3.9,5.7
	L386.1,45.7z"/>
<rect id="_x3C_Slice_x3E__1_" fill="none" width="406" height="64"/>
</svg>
