<?xml version="1.0" encoding="utf-8"?>
<!-- Generator: Adobe Illustrator 14.0.0, SVG Export Plug-In  -->
<!DOCTYPE svg PUBLIC "-//W3C//DTD SVG 1.1//EN" "http://www.w3.org/Graphics/SVG/1.1/DTD/svg11.dtd" [
	<!ENTITY ns_flows "http://ns.adobe.com/Flows/1.0/">
]>
<svg version="1.1"
	 xmlns="http://www.w3.org/2000/svg" xmlns:xlink="http://www.w3.org/1999/xlink" xmlns:a="http://ns.adobe.com/AdobeSVGViewerExtensions/3.0/"
	 x="0px" y="0px" width="308px" height="308px" viewBox="0 0.11 308 308" enable-background="new 0 0.11 308 308"
	 xml:space="preserve">
<defs>
</defs>
<g>
	<g>
		<path fill="#F15B52" d="M303.45,125.47c1.68,9.04,2.55,18.36,2.55,27.89c0,84.09-68.16,152.25-152.25,152.25
			S1.5,237.45,1.5,153.36S69.66,1.11,153.75,1.11c59.62,0,111.23,34.26,136.22,84.17l-75.65,88.13c0,0,0-30.5,0-45.02
			c0-14.52-3.9-20.73-9.73-22.24c-5.83-1.51-13.69,3.99-20.59,11.53c-19.73,21.54-50.72,63.09-50.72,63.09s0-34.79,0-49.11
			c0-14.32-3.27-26.6-22.1-26.6c-18.83,0-26.19,0-31.51,0c0,15.83,16.78,11.84,16.78,25.78c0,7.38,0,61.39,0,72.44
			c0,11.05,2.86,30.28,24.15,30.28c21.28,0,64.26-64.25,64.26-64.25s0,33.56,0,40.93c0,7.37,3.68,23.33,22.92,23.33
			S303.45,125.47,303.45,125.47z"/>
	</g>
</g>
<rect id="_x3C_Slice_x3E__3_" fill="none" width="308" height="308"/>
</svg>
